# xmcd
#
# Track frame offsets:
#	150
#	21782
#	43140
#	60585
#	79320
#	98190
#	114500
#	132830
#	151662
#	171370
#	190725
#	214415
#	239587
#	255540
#
# Disc length: 3735 seconds
#
# Revision: 0
# Processed by: cddbd v1.5.2PL0 Copyright (c) Steve Scherf et al.
# Submitted via: dBpowerAMP V4.0
#
DISCID=bf0e950e
DTITLE=The Dixie Stompers - Stock Yards Strut
DYEAR=1995
DGENRE=Americana
TTITLE0=Stock Yards Strut
TTITLE1=Hey! I am Blue
TTITLE2=Nobody's Fault but Mine
TTITLE3=Too Much Mustard
TTITLE4=Confessin' Blues
TTITLE5=All of Me
TTITLE6=My Buddy
TTITLE7=Barefoot Stomp
TTITLE8=Alcoholic Blues
TTITLE9=Gettysburg March
TTITLE10=Blue Mama's Suicide Wail
TTITLE11=San Andreas Fault
TTITLE12=Oh, Daddy
TTITLE13=When the Saints Go Marching In
EXTD=
EXTT0=
EXTT1=
EXTT2=
EXTT3=
EXTT4=
EXTT5=
EXTT6=
EXTT7=
EXTT8=
EXTT9=
EXTT10=
EXTT11=
EXTT12=
EXTT13=
PLAYORDER=
